<?xml version="1.0" encoding="utf-8"?>
<svg xmlns="http://www.w3.org/2000/svg" xmlns:xlink="http://www.w3.org/1999/xlink" width="528" height="336" viewBox="0 0 2112 1344">
<defs>
  <clipPath id="clip530">
    <rect x="0" y="0" width="2112" height="1344"/>
  </clipPath>
</defs>
<path clip-path="url(#clip530)" d="M0 1344 L2112 1344 L2112 2.13163e-14 L0 2.13163e-14  Z" fill="#ffffff" fill-rule="evenodd" fill-opacity="1"/>
<defs>
  <clipPath id="clip531">
    <rect x="422" y="0" width="1479" height="1344"/>
  </clipPath>
</defs>
<path clip-path="url(#clip530)" d="M210.727 1173.47 L2064.76 1173.47 L2064.76 47.2441 L210.727 47.2441  Z" fill="#ffffff" fill-rule="evenodd" fill-opacity="1"/>
<defs>
  <clipPath id="clip532">
    <rect x="210" y="47" width="1855" height="1127"/>
  </clipPath>
</defs>
<polyline clip-path="url(#clip532)" style="stroke:#000000; stroke-linecap:round; stroke-linejoin:round; stroke-width:2; stroke-opacity:0.1; fill:none" points="263.2,1173.47 263.2,47.2441 "/>
<polyline clip-path="url(#clip532)" style="stroke:#000000; stroke-linecap:round; stroke-linejoin:round; stroke-width:2; stroke-opacity:0.1; fill:none" points="846.228,1173.47 846.228,47.2441 "/>
<polyline clip-path="url(#clip532)" style="stroke:#000000; stroke-linecap:round; stroke-linejoin:round; stroke-width:2; stroke-opacity:0.1; fill:none" points="1429.26,1173.47 1429.26,47.2441 "/>
<polyline clip-path="url(#clip532)" style="stroke:#000000; stroke-linecap:round; stroke-linejoin:round; stroke-width:2; stroke-opacity:0.1; fill:none" points="2012.28,1173.47 2012.28,47.2441 "/>
<polyline clip-path="url(#clip530)" style="stroke:#000000; stroke-linecap:round; stroke-linejoin:round; stroke-width:4; stroke-opacity:1; fill:none" points="210.727,1173.47 2064.76,1173.47 "/>
<polyline clip-path="url(#clip530)" style="stroke:#000000; stroke-linecap:round; stroke-linejoin:round; stroke-width:4; stroke-opacity:1; fill:none" points="263.2,1173.47 263.2,1154.57 "/>
<polyline clip-path="url(#clip530)" style="stroke:#000000; stroke-linecap:round; stroke-linejoin:round; stroke-width:4; stroke-opacity:1; fill:none" points="846.228,1173.47 846.228,1154.57 "/>
<polyline clip-path="url(#clip530)" style="stroke:#000000; stroke-linecap:round; stroke-linejoin:round; stroke-width:4; stroke-opacity:1; fill:none" points="1429.26,1173.47 1429.26,1154.57 "/>
<polyline clip-path="url(#clip530)" style="stroke:#000000; stroke-linecap:round; stroke-linejoin:round; stroke-width:4; stroke-opacity:1; fill:none" points="2012.28,1173.47 2012.28,1154.57 "/>
<path clip-path="url(#clip530)" d="M253.582 1229.63 L261.221 1229.63 L261.221 1203.27 L252.911 1204.93 L252.911 1200.67 L261.175 1199.01 L265.85 1199.01 L265.85 1229.63 L273.489 1229.63 L273.489 1233.57 L253.582 1233.57 L253.582 1229.63 Z" fill="#000000" fill-rule="nonzero" fill-opacity="1" /><path clip-path="url(#clip530)" d="M840.881 1229.63 L857.2 1229.63 L857.2 1233.57 L835.256 1233.57 L835.256 1229.63 Q837.918 1226.88 842.501 1222.25 Q847.107 1217.59 848.288 1216.25 Q850.533 1213.73 851.413 1211.99 Q852.316 1210.23 852.316 1208.54 Q852.316 1205.79 850.371 1204.05 Q848.45 1202.32 845.348 1202.32 Q843.149 1202.32 840.695 1203.08 Q838.265 1203.84 835.487 1205.4 L835.487 1200.67 Q838.311 1199.54 840.765 1198.96 Q843.219 1198.38 845.256 1198.38 Q850.626 1198.38 853.82 1201.07 Q857.015 1203.75 857.015 1208.24 Q857.015 1210.37 856.205 1212.29 Q855.418 1214.19 853.311 1216.78 Q852.732 1217.46 849.631 1220.67 Q846.529 1223.87 840.881 1229.63 Z" fill="#000000" fill-rule="nonzero" fill-opacity="1" /><path clip-path="url(#clip530)" d="M1433.5 1214.93 Q1436.86 1215.65 1438.73 1217.92 Q1440.63 1220.19 1440.63 1223.52 Q1440.63 1228.64 1437.11 1231.44 Q1433.6 1234.24 1427.11 1234.24 Q1424.94 1234.24 1422.62 1233.8 Q1420.33 1233.38 1417.88 1232.53 L1417.88 1228.01 Q1419.82 1229.15 1422.14 1229.72 Q1424.45 1230.3 1426.98 1230.3 Q1431.37 1230.3 1433.67 1228.57 Q1435.98 1226.83 1435.98 1223.52 Q1435.98 1220.46 1433.83 1218.75 Q1431.7 1217.02 1427.88 1217.02 L1423.85 1217.02 L1423.85 1213.17 L1428.06 1213.17 Q1431.51 1213.17 1433.34 1211.81 Q1435.17 1210.42 1435.17 1207.83 Q1435.17 1205.16 1433.27 1203.75 Q1431.4 1202.32 1427.88 1202.32 Q1425.96 1202.32 1423.76 1202.73 Q1421.56 1203.15 1418.92 1204.03 L1418.92 1199.86 Q1421.58 1199.12 1423.9 1198.75 Q1426.23 1198.38 1428.29 1198.38 Q1433.62 1198.38 1436.72 1200.81 Q1439.82 1203.22 1439.82 1207.34 Q1439.82 1210.21 1438.18 1212.2 Q1436.54 1214.17 1433.5 1214.93 Z" fill="#000000" fill-rule="nonzero" fill-opacity="1" /><path clip-path="url(#clip530)" d="M2015.29 1203.08 L2003.49 1221.53 L2015.29 1221.53 L2015.29 1203.08 M2014.07 1199.01 L2019.95 1199.01 L2019.95 1221.53 L2024.88 1221.53 L2024.88 1225.42 L2019.95 1225.42 L2019.95 1233.57 L2015.29 1233.57 L2015.29 1225.42 L1999.69 1225.42 L1999.69 1220.9 L2014.07 1199.01 Z" fill="#000000" fill-rule="nonzero" fill-opacity="1" /><path clip-path="url(#clip530)" d="M1121.92 1264.49 L1127.81 1264.49 L1127.81 1293.74 L1145.29 1278.37 L1152.76 1278.37 L1133.86 1295.04 L1153.56 1314.01 L1145.92 1314.01 L1127.81 1296.6 L1127.81 1314.01 L1121.92 1314.01 L1121.92 1264.49 Z" fill="#000000" fill-rule="nonzero" fill-opacity="1" /><polyline clip-path="url(#clip532)" style="stroke:#000000; stroke-linecap:round; stroke-linejoin:round; stroke-width:2; stroke-opacity:0.1; fill:none" points="210.727,835.54 2064.76,835.54 "/>
<polyline clip-path="url(#clip532)" style="stroke:#000000; stroke-linecap:round; stroke-linejoin:round; stroke-width:2; stroke-opacity:0.1; fill:none" points="210.727,444.855 2064.76,444.855 "/>
<polyline clip-path="url(#clip532)" style="stroke:#000000; stroke-linecap:round; stroke-linejoin:round; stroke-width:2; stroke-opacity:0.1; fill:none" points="210.727,54.171 2064.76,54.171 "/>
<polyline clip-path="url(#clip530)" style="stroke:#000000; stroke-linecap:round; stroke-linejoin:round; stroke-width:4; stroke-opacity:1; fill:none" points="210.727,1173.47 210.727,47.2441 "/>
<polyline clip-path="url(#clip530)" style="stroke:#000000; stroke-linecap:round; stroke-linejoin:round; stroke-width:4; stroke-opacity:1; fill:none" points="210.727,835.54 229.625,835.54 "/>
<polyline clip-path="url(#clip530)" style="stroke:#000000; stroke-linecap:round; stroke-linejoin:round; stroke-width:4; stroke-opacity:1; fill:none" points="210.727,444.855 229.625,444.855 "/>
<polyline clip-path="url(#clip530)" style="stroke:#000000; stroke-linecap:round; stroke-linejoin:round; stroke-width:4; stroke-opacity:1; fill:none" points="210.727,54.171 229.625,54.171 "/>
<path clip-path="url(#clip530)" d="M53.1034 855.332 L60.7423 855.332 L60.7423 828.967 L52.4321 830.633 L52.4321 826.374 L60.696 824.707 L65.3719 824.707 L65.3719 855.332 L73.0107 855.332 L73.0107 859.267 L53.1034 859.267 L53.1034 855.332 Z" fill="#000000" fill-rule="nonzero" fill-opacity="1" /><path clip-path="url(#clip530)" d="M92.4551 827.786 Q88.844 827.786 87.0153 831.351 Q85.2097 834.893 85.2097 842.022 Q85.2097 849.129 87.0153 852.693 Q88.844 856.235 92.4551 856.235 Q96.0893 856.235 97.8948 852.693 Q99.7235 849.129 99.7235 842.022 Q99.7235 834.893 97.8948 831.351 Q96.0893 827.786 92.4551 827.786 M92.4551 824.082 Q98.2652 824.082 101.321 828.689 Q104.399 833.272 104.399 842.022 Q104.399 850.749 101.321 855.355 Q98.2652 859.939 92.4551 859.939 Q86.6449 859.939 83.5662 855.355 Q80.5107 850.749 80.5107 842.022 Q80.5107 833.272 83.5662 828.689 Q86.6449 824.082 92.4551 824.082 Z" fill="#000000" fill-rule="nonzero" fill-opacity="1" /><path clip-path="url(#clip530)" d="M104.399 818.184 L128.511 818.184 L128.511 821.381 L104.399 821.381 L104.399 818.184 Z" fill="#000000" fill-rule="nonzero" fill-opacity="1" /><path clip-path="url(#clip530)" d="M137.369 828.66 L143.576 828.66 L143.576 807.238 L136.824 808.592 L136.824 805.131 L143.538 803.777 L147.338 803.777 L147.338 828.66 L153.544 828.66 L153.544 831.857 L137.369 831.857 L137.369 828.66 Z" fill="#000000" fill-rule="nonzero" fill-opacity="1" /><path clip-path="url(#clip530)" d="M169.343 806.278 Q166.409 806.278 164.923 809.175 Q163.456 812.052 163.456 817.845 Q163.456 823.619 164.923 826.516 Q166.409 829.393 169.343 829.393 Q172.295 829.393 173.762 826.516 Q175.248 823.619 175.248 817.845 Q175.248 812.052 173.762 809.175 Q172.295 806.278 169.343 806.278 M169.343 803.269 Q174.063 803.269 176.546 807.012 Q179.047 810.736 179.047 817.845 Q179.047 824.936 176.546 828.679 Q174.063 832.402 169.343 832.402 Q164.622 832.402 162.12 828.679 Q159.638 824.936 159.638 817.845 Q159.638 810.736 162.12 807.012 Q164.622 803.269 169.343 803.269 Z" fill="#000000" fill-rule="nonzero" fill-opacity="1" /><path clip-path="url(#clip530)" d="M78.4187 464.648 L86.0575 464.648 L86.0575 438.282 L77.7474 439.949 L77.7474 435.69 L86.0112 434.023 L90.6871 434.023 L90.6871 464.648 L98.326 464.648 L98.326 468.583 L78.4187 468.583 L78.4187 464.648 Z" fill="#000000" fill-rule="nonzero" fill-opacity="1" /><path clip-path="url(#clip530)" d="M117.77 437.102 Q114.159 437.102 112.331 440.666 Q110.525 444.208 110.525 451.338 Q110.525 458.444 112.331 462.009 Q114.159 465.551 117.77 465.551 Q121.405 465.551 123.21 462.009 Q125.039 458.444 125.039 451.338 Q125.039 444.208 123.21 440.666 Q121.405 437.102 117.77 437.102 M117.77 433.398 Q123.58 433.398 126.636 438.004 Q129.715 442.588 129.715 451.338 Q129.715 460.065 126.636 464.671 Q123.58 469.254 117.77 469.254 Q111.96 469.254 108.881 464.671 Q105.826 460.065 105.826 451.338 Q105.826 442.588 108.881 438.004 Q111.96 433.398 117.77 433.398 Z" fill="#000000" fill-rule="nonzero" fill-opacity="1" /><path clip-path="url(#clip530)" d="M129.715 427.499 L153.826 427.499 L153.826 430.697 L129.715 430.697 L129.715 427.499 Z" fill="#000000" fill-rule="nonzero" fill-opacity="1" /><path clip-path="url(#clip530)" d="M162.064 413.093 L176.979 413.093 L176.979 416.29 L165.543 416.29 L165.543 423.174 Q166.371 422.891 167.199 422.76 Q168.026 422.609 168.854 422.609 Q173.556 422.609 176.302 425.186 Q179.047 427.763 179.047 432.164 Q179.047 436.696 176.226 439.217 Q173.405 441.718 168.271 441.718 Q166.503 441.718 164.66 441.417 Q162.835 441.116 160.879 440.514 L160.879 436.696 Q162.572 437.618 164.377 438.069 Q166.183 438.521 168.195 438.521 Q171.449 438.521 173.349 436.809 Q175.248 435.098 175.248 432.164 Q175.248 429.23 173.349 427.518 Q171.449 425.807 168.195 425.807 Q166.672 425.807 165.149 426.145 Q163.644 426.484 162.064 427.198 L162.064 413.093 Z" fill="#000000" fill-rule="nonzero" fill-opacity="1" /><path clip-path="url(#clip530)" d="M108.342 73.9634 L115.981 73.9634 L115.981 47.5978 L107.671 49.2645 L107.671 45.0052 L115.934 43.3386 L120.61 43.3386 L120.61 73.9634 L128.249 73.9634 L128.249 77.8986 L108.342 77.8986 L108.342 73.9634 Z" fill="#000000" fill-rule="nonzero" fill-opacity="1" /><path clip-path="url(#clip530)" d="M147.693 46.4173 Q144.082 46.4173 142.254 49.9821 Q140.448 53.5237 140.448 60.6533 Q140.448 67.7597 142.254 71.3245 Q144.082 74.8662 147.693 74.8662 Q151.328 74.8662 153.133 71.3245 Q154.962 67.7597 154.962 60.6533 Q154.962 53.5237 153.133 49.9821 Q151.328 46.4173 147.693 46.4173 M147.693 42.7136 Q153.504 42.7136 156.559 47.32 Q159.638 51.9033 159.638 60.6533 Q159.638 69.3801 156.559 73.9866 Q153.504 78.5699 147.693 78.5699 Q141.883 78.5699 138.805 73.9866 Q135.749 69.3801 135.749 60.6533 Q135.749 51.9033 138.805 47.32 Q141.883 42.7136 147.693 42.7136 Z" fill="#000000" fill-rule="nonzero" fill-opacity="1" /><path clip-path="url(#clip530)" d="M169.343 24.9096 Q166.409 24.9096 164.923 27.806 Q163.456 30.6836 163.456 36.4764 Q163.456 42.2504 164.923 45.1468 Q166.409 48.0244 169.343 48.0244 Q172.295 48.0244 173.762 45.1468 Q175.248 42.2504 175.248 36.4764 Q175.248 30.6836 173.762 27.806 Q172.295 24.9096 169.343 24.9096 M169.343 21.9004 Q174.063 21.9004 176.546 25.6431 Q179.047 29.3671 179.047 36.4764 Q179.047 43.5669 176.546 47.3097 Q174.063 51.0336 169.343 51.0336 Q164.622 51.0336 162.12 47.3097 Q159.638 43.5669 159.638 36.4764 Q159.638 29.3671 162.12 25.6431 Q164.622 21.9004 169.343 21.9004 Z" fill="#000000" fill-rule="nonzero" fill-opacity="1" /><polyline clip-path="url(#clip532)" style="stroke:#009af9; stroke-linecap:round; stroke-linejoin:round; stroke-width:4; stroke-opacity:1; fill:none" points="263.2,79.1184 846.228,158.449 1429.26,404.219 2012.28,1141.6 "/>
<path clip-path="url(#clip530)" d="M1701.41 188.465 L2002.95 188.465 L2002.95 84.785 L1701.41 84.785  Z" fill="#ffffff" fill-rule="evenodd" fill-opacity="1"/>
<polyline clip-path="url(#clip530)" style="stroke:#000000; stroke-linecap:round; stroke-linejoin:round; stroke-width:4; stroke-opacity:1; fill:none" points="1701.41,188.465 2002.95,188.465 2002.95,84.785 1701.41,84.785 1701.41,188.465 "/>
<polyline clip-path="url(#clip530)" style="stroke:#009af9; stroke-linecap:round; stroke-linejoin:round; stroke-width:4; stroke-opacity:1; fill:none" points="1722.01,136.625 1845.61,136.625 "/>
<path clip-path="url(#clip530)" d="M1890.13 116.542 Q1890.13 117.83 1889.31 118.626 Q1888.51 119.422 1887.51 119.422 Q1886.78 119.422 1886.24 118.977 Q1885.73 118.532 1885.73 117.759 Q1885.73 116.963 1886.33 116.12 Q1886.94 115.277 1888.33 115.16 Q1887.41 114.293 1885.96 114.293 Q1885.23 114.293 1884.62 114.761 Q1884.04 115.206 1883.71 115.933 Q1883.36 116.682 1882.56 120.922 Q1882.31 122.303 1882.07 123.639 Q1881.84 124.974 1881.56 126.379 L1885.54 126.379 Q1886.05 126.379 1886.26 126.402 Q1886.48 126.426 1886.64 126.543 Q1886.83 126.66 1886.83 126.918 Q1886.83 127.573 1886.52 127.737 Q1886.24 127.878 1885.4 127.878 L1881.28 127.878 L1878.39 143.079 Q1878.32 143.524 1878.02 144.93 Q1877.74 146.311 1877.06 148.583 Q1876.38 150.879 1875.7 152.237 Q1875.33 153.01 1874.83 153.736 Q1874.37 154.486 1873.69 155.235 Q1873.01 155.985 1872.12 156.43 Q1871.23 156.898 1870.29 156.898 Q1868.7 156.898 1867.46 156.008 Q1866.21 155.118 1866.21 153.596 Q1866.21 152.308 1867.01 151.511 Q1867.83 150.715 1868.84 150.715 Q1869.56 150.715 1870.08 151.16 Q1870.62 151.605 1870.62 152.378 Q1870.62 152.706 1870.5 153.081 Q1870.38 153.455 1870.13 153.877 Q1869.87 154.322 1869.31 154.626 Q1868.74 154.931 1867.97 154.978 Q1868.89 155.844 1870.29 155.844 Q1870.74 155.844 1871.13 155.657 Q1871.53 155.493 1871.86 155.071 Q1872.21 154.65 1872.47 154.228 Q1872.73 153.83 1872.98 153.057 Q1873.24 152.308 1873.41 151.745 Q1873.57 151.183 1873.78 150.176 Q1874.01 149.169 1874.13 148.56 Q1874.25 147.974 1874.46 146.827 L1878.04 127.878 L1874.88 127.878 Q1874.32 127.878 1874.08 127.855 Q1873.87 127.831 1873.71 127.714 Q1873.55 127.573 1873.55 127.292 Q1873.55 126.847 1873.73 126.66 Q1873.94 126.449 1874.18 126.426 Q1874.41 126.379 1874.97 126.379 L1878.3 126.379 Q1879.43 120.453 1879.87 118.86 Q1880.39 117.174 1881.18 116.003 Q1881.98 114.808 1882.87 114.246 Q1883.76 113.684 1884.48 113.473 Q1885.23 113.239 1885.96 113.239 Q1887.6 113.239 1888.86 114.129 Q1890.13 114.996 1890.13 116.542 Z" fill="#000000" fill-rule="nonzero" fill-opacity="1" /><path clip-path="url(#clip530)" d="M1896.58 135.069 Q1896.58 126.965 1899.61 120.43 Q1900.89 117.689 1902.7 115.394 Q1904.5 113.098 1905.7 112.091 Q1906.89 111.084 1907.22 111.084 Q1907.69 111.084 1907.71 111.553 Q1907.71 111.787 1907.08 112.372 Q1899.35 120.242 1899.37 135.069 Q1899.37 149.942 1906.89 157.507 Q1907.71 158.327 1907.71 158.585 Q1907.71 159.053 1907.22 159.053 Q1906.89 159.053 1905.74 158.093 Q1904.6 157.133 1902.82 154.931 Q1901.04 152.729 1899.75 150.036 Q1896.58 143.501 1896.58 135.069 Z" fill="#000000" fill-rule="nonzero" fill-opacity="1" /><path clip-path="url(#clip530)" d="M1938.89 129.026 Q1938.89 130.337 1938.07 131.087 Q1937.25 131.813 1936.32 131.813 Q1935.43 131.813 1934.96 131.298 Q1934.49 130.782 1934.49 130.127 Q1934.49 129.236 1935.15 128.464 Q1935.8 127.691 1936.79 127.527 Q1935.83 126.918 1934.4 126.918 Q1933.46 126.918 1932.64 127.41 Q1931.84 127.901 1931.35 128.534 Q1930.88 129.166 1930.46 130.08 Q1930.06 130.97 1929.9 131.508 Q1929.76 132.024 1929.64 132.586 L1928 139.144 Q1927.21 142.259 1927.21 143.36 Q1927.21 144.719 1927.86 145.632 Q1928.52 146.522 1929.83 146.522 Q1930.34 146.522 1930.93 146.382 Q1931.52 146.218 1932.27 145.796 Q1933.04 145.351 1933.72 144.695 Q1934.42 144.016 1935.1 142.868 Q1935.78 141.721 1936.22 140.245 Q1936.36 139.73 1936.83 139.73 Q1937.42 139.73 1937.42 140.198 Q1937.42 140.596 1937.09 141.44 Q1936.79 142.259 1936.11 143.337 Q1935.45 144.391 1934.58 145.351 Q1933.72 146.288 1932.43 146.944 Q1931.14 147.6 1929.74 147.6 Q1927.72 147.6 1926.39 146.522 Q1925.05 145.445 1924.56 143.946 Q1924.44 144.157 1924.28 144.438 Q1924.11 144.719 1923.62 145.351 Q1923.15 145.96 1922.62 146.429 Q1922.08 146.874 1921.23 147.225 Q1920.41 147.6 1919.52 147.6 Q1918.4 147.6 1917.39 147.272 Q1916.41 146.944 1915.71 146.194 Q1915 145.445 1915 144.414 Q1915 143.267 1915.78 142.47 Q1916.57 141.65 1917.65 141.65 Q1918.33 141.65 1918.87 142.049 Q1919.43 142.447 1919.43 143.313 Q1919.43 144.274 1918.77 145 Q1918.12 145.726 1917.18 145.913 Q1918.14 146.522 1919.57 146.522 Q1921.12 146.522 1922.33 145.164 Q1923.55 143.805 1924.14 141.533 Q1925.59 136.076 1926.15 133.64 Q1926.71 131.181 1926.71 130.127 Q1926.71 129.143 1926.46 128.464 Q1926.2 127.784 1925.75 127.48 Q1925.33 127.152 1924.93 127.035 Q1924.56 126.918 1924.14 126.918 Q1923.43 126.918 1922.64 127.199 Q1921.87 127.48 1920.93 128.136 Q1920.02 128.768 1919.15 130.08 Q1918.28 131.391 1917.7 133.195 Q1917.58 133.734 1917.06 133.734 Q1916.5 133.71 1916.5 133.242 Q1916.5 132.844 1916.81 132.024 Q1917.13 131.181 1917.79 130.127 Q1918.47 129.073 1919.34 128.136 Q1920.23 127.175 1921.51 126.519 Q1922.83 125.864 1924.23 125.864 Q1924.86 125.864 1925.47 126.004 Q1926.11 126.121 1926.85 126.473 Q1927.63 126.824 1928.31 127.597 Q1928.99 128.37 1929.41 129.494 Q1929.69 128.955 1930.06 128.44 Q1930.46 127.925 1931.07 127.292 Q1931.7 126.637 1932.57 126.262 Q1933.46 125.864 1934.44 125.864 Q1935.4 125.864 1936.34 126.121 Q1937.28 126.356 1938.07 127.128 Q1938.89 127.878 1938.89 129.026 Z" fill="#000000" fill-rule="nonzero" fill-opacity="1" /><path clip-path="url(#clip530)" d="M1958.97 148.717 Q1958.97 149.651 1958.4 150.209 Q1957.84 150.766 1957.14 150.766 Q1956.51 150.766 1956.18 150.406 Q1955.86 150.045 1955.86 149.586 Q1955.86 149.389 1955.94 149.143 Q1956.02 148.881 1956.2 148.569 Q1956.4 148.258 1956.81 148.028 Q1957.22 147.799 1957.77 147.766 Q1957.66 147.651 1957.63 147.635 Q1957.38 147.438 1956.92 147.372 Q1956.86 147.34 1956.63 147.34 Q1955.5 147.34 1954.35 148.176 Q1953.22 148.996 1951.82 150.553 Q1950.07 152.373 1948.94 153.045 Q1953.91 153.701 1953.91 156.57 Q1953.91 157.046 1953.77 157.62 Q1953.51 158.702 1953.51 159.489 Q1953.51 161.063 1954.58 161.063 Q1955.61 161.063 1956.27 160.013 Q1956.94 158.964 1957.5 156.915 Q1957.58 156.538 1957.66 156.423 Q1957.74 156.308 1957.97 156.308 Q1958.38 156.308 1958.38 156.636 Q1958 158.554 1957.17 160.03 Q1956.1 161.817 1954.51 161.817 Q1953.18 161.817 1952.3 160.899 Q1951.43 159.964 1951.43 158.489 Q1951.43 158.128 1951.56 157.308 Q1951.66 156.98 1951.66 156.603 Q1951.66 155.833 1951.23 155.259 Q1950.81 154.668 1950.12 154.373 Q1949.43 154.078 1948.86 153.947 Q1948.3 153.799 1947.76 153.75 Q1946.12 160.686 1945.89 161.112 Q1945.74 161.407 1945.41 161.604 Q1945.08 161.817 1944.74 161.817 Q1944.41 161.817 1944.08 161.587 Q1943.77 161.374 1943.77 160.866 Q1943.77 160.604 1943.9 160.128 L1948.77 140.781 L1948.87 140.125 Q1948.87 139.929 1948.79 139.83 Q1948.72 139.716 1948.33 139.634 Q1947.95 139.552 1947.2 139.552 Q1946.89 139.552 1946.74 139.535 Q1946.61 139.519 1946.49 139.437 Q1946.38 139.338 1946.38 139.142 Q1946.38 138.863 1946.49 138.715 Q1946.63 138.551 1946.72 138.519 Q1946.82 138.486 1947.02 138.469 Q1947.3 138.453 1948.23 138.371 Q1949.17 138.273 1949.97 138.207 Q1950.77 138.142 1951.12 138.142 Q1951.31 138.142 1951.41 138.24 Q1951.53 138.322 1951.54 138.42 L1951.56 138.502 L1948.07 152.668 Q1949.51 152.094 1951.79 149.553 Q1954.43 146.602 1956.69 146.602 Q1957.76 146.602 1958.36 147.258 Q1958.97 147.897 1958.97 148.717 Z" fill="#000000" fill-rule="nonzero" fill-opacity="1" /><path clip-path="url(#clip530)" d="M1963.94 158.585 Q1963.94 158.351 1964.55 157.765 Q1972.28 149.895 1972.28 135.069 Q1972.28 120.195 1964.85 112.677 Q1963.94 111.81 1963.94 111.553 Q1963.94 111.084 1964.41 111.084 Q1964.73 111.084 1965.88 112.044 Q1967.05 113.005 1968.81 115.206 Q1970.59 117.408 1971.9 120.102 Q1975.06 126.637 1975.06 135.069 Q1975.06 143.173 1972.04 149.708 Q1970.75 152.448 1968.95 154.744 Q1967.15 157.039 1965.95 158.046 Q1964.76 159.053 1964.41 159.053 Q1963.94 159.053 1963.94 158.585 Z" fill="#000000" fill-rule="nonzero" fill-opacity="1" /></svg>
