<?xml version="1.0" encoding="utf-8"?>
<svg xmlns="http://www.w3.org/2000/svg" xmlns:xlink="http://www.w3.org/1999/xlink" width="528" height="336" viewBox="0 0 2112 1344">
<defs>
  <clipPath id="clip140">
    <rect x="0" y="0" width="2112" height="1344"/>
  </clipPath>
</defs>
<path clip-path="url(#clip140)" d="M0 1344 L2112 1344 L2112 2.13163e-14 L0 2.13163e-14  Z" fill="#ffffff" fill-rule="evenodd" fill-opacity="1"/>
<defs>
  <clipPath id="clip141">
    <rect x="422" y="0" width="1479" height="1344"/>
  </clipPath>
</defs>
<path clip-path="url(#clip140)" d="M186.616 1222.85 L2064.76 1222.85 L2064.76 47.2441 L186.616 47.2441  Z" fill="#ffffff" fill-rule="evenodd" fill-opacity="1"/>
<defs>
  <clipPath id="clip142">
    <rect x="186" y="47" width="1879" height="1177"/>
  </clipPath>
</defs>
<polyline clip-path="url(#clip142)" style="stroke:#000000; stroke-linecap:round; stroke-linejoin:round; stroke-width:2; stroke-opacity:0.1; fill:none" points="239.771,1222.85 239.771,47.2441 "/>
<polyline clip-path="url(#clip142)" style="stroke:#000000; stroke-linecap:round; stroke-linejoin:round; stroke-width:2; stroke-opacity:0.1; fill:none" points="1224.12,1222.85 1224.12,47.2441 "/>
<polyline clip-path="url(#clip140)" style="stroke:#000000; stroke-linecap:round; stroke-linejoin:round; stroke-width:4; stroke-opacity:1; fill:none" points="186.616,1222.85 2064.76,1222.85 "/>
<polyline clip-path="url(#clip140)" style="stroke:#000000; stroke-linecap:round; stroke-linejoin:round; stroke-width:4; stroke-opacity:1; fill:none" points="239.771,1222.85 239.771,1203.96 "/>
<polyline clip-path="url(#clip140)" style="stroke:#000000; stroke-linecap:round; stroke-linejoin:round; stroke-width:4; stroke-opacity:1; fill:none" points="1224.12,1222.85 1224.12,1203.96 "/>
<path clip-path="url(#clip140)" d="M177.134 1294.67 L184.773 1294.67 L184.773 1268.31 L176.463 1269.98 L176.463 1265.72 L184.727 1264.05 L189.403 1264.05 L189.403 1294.67 L197.042 1294.67 L197.042 1298.61 L177.134 1298.61 L177.134 1294.67 Z" fill="#000000" fill-rule="nonzero" fill-opacity="1" /><path clip-path="url(#clip140)" d="M216.486 1267.13 Q212.875 1267.13 211.046 1270.69 Q209.241 1274.24 209.241 1281.36 Q209.241 1288.47 211.046 1292.04 Q212.875 1295.58 216.486 1295.58 Q220.12 1295.58 221.926 1292.04 Q223.755 1288.47 223.755 1281.36 Q223.755 1274.24 221.926 1270.69 Q220.12 1267.13 216.486 1267.13 M216.486 1263.42 Q222.296 1263.42 225.352 1268.03 Q228.43 1272.61 228.43 1281.36 Q228.43 1290.09 225.352 1294.7 Q222.296 1299.28 216.486 1299.28 Q210.676 1299.28 207.597 1294.7 Q204.542 1290.09 204.542 1281.36 Q204.542 1272.61 207.597 1268.03 Q210.676 1263.42 216.486 1263.42 Z" fill="#000000" fill-rule="nonzero" fill-opacity="1" /><path clip-path="url(#clip140)" d="M228.43 1257.53 L252.542 1257.53 L252.542 1260.72 L228.43 1260.72 L228.43 1257.53 Z" fill="#000000" fill-rule="nonzero" fill-opacity="1" /><path clip-path="url(#clip140)" d="M261.4 1268 L267.607 1268 L267.607 1246.58 L260.855 1247.93 L260.855 1244.47 L267.569 1243.12 L271.369 1243.12 L271.369 1268 L277.575 1268 L277.575 1271.2 L261.4 1271.2 L261.4 1268 Z" fill="#000000" fill-rule="nonzero" fill-opacity="1" /><path clip-path="url(#clip140)" d="M293.374 1245.62 Q290.44 1245.62 288.954 1248.52 Q287.487 1251.39 287.487 1257.19 Q287.487 1262.96 288.954 1265.86 Q290.44 1268.74 293.374 1268.74 Q296.327 1268.74 297.794 1265.86 Q299.279 1262.96 299.279 1257.19 Q299.279 1251.39 297.794 1248.52 Q296.327 1245.62 293.374 1245.62 M293.374 1242.61 Q298.094 1242.61 300.577 1246.35 Q303.078 1250.08 303.078 1257.19 Q303.078 1264.28 300.577 1268.02 Q298.094 1271.74 293.374 1271.74 Q288.653 1271.74 286.152 1268.02 Q283.669 1264.28 283.669 1257.19 Q283.669 1250.08 286.152 1246.35 Q288.653 1242.61 293.374 1242.61 Z" fill="#000000" fill-rule="nonzero" fill-opacity="1" /><path clip-path="url(#clip140)" d="M1174.14 1294.67 L1181.78 1294.67 L1181.78 1268.31 L1173.47 1269.98 L1173.47 1265.72 L1181.73 1264.05 L1186.41 1264.05 L1186.41 1294.67 L1194.05 1294.67 L1194.05 1298.61 L1174.14 1298.61 L1174.14 1294.67 Z" fill="#000000" fill-rule="nonzero" fill-opacity="1" /><path clip-path="url(#clip140)" d="M1213.49 1267.13 Q1209.88 1267.13 1208.05 1270.69 Q1206.25 1274.24 1206.25 1281.36 Q1206.25 1288.47 1208.05 1292.04 Q1209.88 1295.58 1213.49 1295.58 Q1217.13 1295.58 1218.93 1292.04 Q1220.76 1288.47 1220.76 1281.36 Q1220.76 1274.24 1218.93 1270.69 Q1217.13 1267.13 1213.49 1267.13 M1213.49 1263.42 Q1219.3 1263.42 1222.36 1268.03 Q1225.44 1272.61 1225.44 1281.36 Q1225.44 1290.09 1222.36 1294.7 Q1219.3 1299.28 1213.49 1299.28 Q1207.68 1299.28 1204.6 1294.7 Q1201.55 1290.09 1201.55 1281.36 Q1201.55 1272.61 1204.6 1268.03 Q1207.68 1263.42 1213.49 1263.42 Z" fill="#000000" fill-rule="nonzero" fill-opacity="1" /><path clip-path="url(#clip140)" d="M1225.44 1257.53 L1249.55 1257.53 L1249.55 1260.72 L1225.44 1260.72 L1225.44 1257.53 Z" fill="#000000" fill-rule="nonzero" fill-opacity="1" /><path clip-path="url(#clip140)" d="M1257.79 1243.12 L1272.7 1243.12 L1272.7 1246.32 L1261.27 1246.32 L1261.27 1253.2 Q1262.09 1252.92 1262.92 1252.79 Q1263.75 1252.64 1264.58 1252.64 Q1269.28 1252.64 1272.03 1255.21 Q1274.77 1257.79 1274.77 1262.19 Q1274.77 1266.72 1271.95 1269.24 Q1269.13 1271.74 1263.99 1271.74 Q1262.23 1271.74 1260.38 1271.44 Q1258.56 1271.14 1256.6 1270.54 L1256.6 1266.72 Q1258.3 1267.64 1260.1 1268.1 Q1261.91 1268.55 1263.92 1268.55 Q1267.17 1268.55 1269.07 1266.84 Q1270.97 1265.12 1270.97 1262.19 Q1270.97 1259.26 1269.07 1257.55 Q1267.17 1255.83 1263.92 1255.83 Q1262.4 1255.83 1260.87 1256.17 Q1259.37 1256.51 1257.79 1257.23 L1257.79 1243.12 Z" fill="#000000" fill-rule="nonzero" fill-opacity="1" /><polyline clip-path="url(#clip142)" style="stroke:#000000; stroke-linecap:round; stroke-linejoin:round; stroke-width:2; stroke-opacity:0.1; fill:none" points="186.616,940.155 2064.76,940.155 "/>
<polyline clip-path="url(#clip142)" style="stroke:#000000; stroke-linecap:round; stroke-linejoin:round; stroke-width:2; stroke-opacity:0.1; fill:none" points="186.616,441.303 2064.76,441.303 "/>
<polyline clip-path="url(#clip140)" style="stroke:#000000; stroke-linecap:round; stroke-linejoin:round; stroke-width:4; stroke-opacity:1; fill:none" points="186.616,1222.85 186.616,47.2441 "/>
<polyline clip-path="url(#clip140)" style="stroke:#000000; stroke-linecap:round; stroke-linejoin:round; stroke-width:4; stroke-opacity:1; fill:none" points="186.616,940.155 205.514,940.155 "/>
<polyline clip-path="url(#clip140)" style="stroke:#000000; stroke-linecap:round; stroke-linejoin:round; stroke-width:4; stroke-opacity:1; fill:none" points="186.616,441.303 205.514,441.303 "/>
<path clip-path="url(#clip140)" d="M53.1034 959.948 L60.7423 959.948 L60.7423 933.582 L52.4321 935.249 L52.4321 930.99 L60.696 929.323 L65.3719 929.323 L65.3719 959.948 L73.0107 959.948 L73.0107 963.883 L53.1034 963.883 L53.1034 959.948 Z" fill="#000000" fill-rule="nonzero" fill-opacity="1" /><path clip-path="url(#clip140)" d="M92.4551 932.402 Q88.844 932.402 87.0153 935.966 Q85.2097 939.508 85.2097 946.638 Q85.2097 953.744 87.0153 957.309 Q88.844 960.851 92.4551 960.851 Q96.0893 960.851 97.8948 957.309 Q99.7235 953.744 99.7235 946.638 Q99.7235 939.508 97.8948 935.966 Q96.0893 932.402 92.4551 932.402 M92.4551 928.698 Q98.2652 928.698 101.321 933.304 Q104.399 937.888 104.399 946.638 Q104.399 955.365 101.321 959.971 Q98.2652 964.554 92.4551 964.554 Q86.6449 964.554 83.5662 959.971 Q80.5107 955.365 80.5107 946.638 Q80.5107 937.888 83.5662 933.304 Q86.6449 928.698 92.4551 928.698 Z" fill="#000000" fill-rule="nonzero" fill-opacity="1" /><path clip-path="url(#clip140)" d="M104.399 922.799 L128.511 922.799 L128.511 925.997 L104.399 925.997 L104.399 922.799 Z" fill="#000000" fill-rule="nonzero" fill-opacity="1" /><path clip-path="url(#clip140)" d="M147.15 911.703 L137.558 926.693 L147.15 926.693 L147.15 911.703 M146.153 908.393 L150.93 908.393 L150.93 926.693 L154.936 926.693 L154.936 929.852 L150.93 929.852 L150.93 936.473 L147.15 936.473 L147.15 929.852 L134.473 929.852 L134.473 926.185 L146.153 908.393 Z" fill="#000000" fill-rule="nonzero" fill-opacity="1" /><path clip-path="url(#clip140)" d="M54.7961 461.096 L62.435 461.096 L62.435 434.73 L54.1248 436.397 L54.1248 432.138 L62.3887 430.471 L67.0646 430.471 L67.0646 461.096 L74.7034 461.096 L74.7034 465.031 L54.7961 465.031 L54.7961 461.096 Z" fill="#000000" fill-rule="nonzero" fill-opacity="1" /><path clip-path="url(#clip140)" d="M94.1478 433.55 Q90.5367 433.55 88.708 437.114 Q86.9024 440.656 86.9024 447.786 Q86.9024 454.892 88.708 458.457 Q90.5367 461.999 94.1478 461.999 Q97.782 461.999 99.5875 458.457 Q101.416 454.892 101.416 447.786 Q101.416 440.656 99.5875 437.114 Q97.782 433.55 94.1478 433.55 M94.1478 429.846 Q99.9579 429.846 103.013 434.452 Q106.092 439.036 106.092 447.786 Q106.092 456.512 103.013 461.119 Q99.9579 465.702 94.1478 465.702 Q88.3376 465.702 85.2589 461.119 Q82.2034 456.512 82.2034 447.786 Q82.2034 439.036 85.2589 434.452 Q88.3376 429.846 94.1478 429.846 Z" fill="#000000" fill-rule="nonzero" fill-opacity="1" /><path clip-path="url(#clip140)" d="M106.092 423.947 L130.204 423.947 L130.204 427.145 L106.092 427.145 L106.092 423.947 Z" fill="#000000" fill-rule="nonzero" fill-opacity="1" /><path clip-path="url(#clip140)" d="M141.676 434.423 L154.936 434.423 L154.936 437.621 L137.106 437.621 L137.106 434.423 Q139.269 432.185 142.993 428.424 Q146.736 424.643 147.695 423.552 Q149.519 421.502 150.234 420.092 Q150.967 418.662 150.967 417.289 Q150.967 415.051 149.388 413.641 Q147.827 412.23 145.306 412.23 Q143.52 412.23 141.526 412.851 Q139.551 413.471 137.294 414.732 L137.294 410.895 Q139.589 409.973 141.582 409.503 Q143.576 409.033 145.231 409.033 Q149.595 409.033 152.19 411.214 Q154.785 413.396 154.785 417.045 Q154.785 418.775 154.127 420.336 Q153.488 421.878 151.776 423.985 Q151.306 424.53 148.786 427.145 Q146.266 429.74 141.676 434.423 Z" fill="#000000" fill-rule="nonzero" fill-opacity="1" /><polyline clip-path="url(#clip142)" style="stroke:#009af9; stroke-linecap:round; stroke-linejoin:round; stroke-width:4; stroke-opacity:1; fill:none" points="239.771,1189.58 436.641,1064.87 633.511,940.161 830.381,815.459 1027.25,690.783 1224.12,566.187 1420.99,441.84 1617.86,318.251 1814.73,196.82 2011.6,80.5161 "/>
<path clip-path="url(#clip140)" d="M1761.91 190.111 L2002.15 190.111 L2002.15 86.4311 L1761.91 86.4311  Z" fill="#ffffff" fill-rule="evenodd" fill-opacity="1"/>
<polyline clip-path="url(#clip140)" style="stroke:#000000; stroke-linecap:round; stroke-linejoin:round; stroke-width:4; stroke-opacity:1; fill:none" points="1761.91,190.111 2002.15,190.111 2002.15,86.4311 1761.91,86.4311 1761.91,190.111 "/>
<polyline clip-path="url(#clip140)" style="stroke:#009af9; stroke-linecap:round; stroke-linejoin:round; stroke-width:4; stroke-opacity:1; fill:none" points="1782.78,138.271 1907.98,138.271 "/>
<path clip-path="url(#clip140)" d="M1942.7 157.958 Q1940.89 162.588 1939.18 164 Q1937.46 165.412 1934.59 165.412 L1931.19 165.412 L1931.19 161.847 L1933.69 161.847 Q1935.45 161.847 1936.42 161.014 Q1937.39 160.181 1938.57 157.079 L1939.34 155.134 L1928.85 129.625 L1933.37 129.625 L1941.47 149.903 L1949.57 129.625 L1954.08 129.625 L1942.7 157.958 Z" fill="#000000" fill-rule="nonzero" fill-opacity="1" /><path clip-path="url(#clip140)" d="M1961.38 151.616 L1969.01 151.616 L1969.01 125.25 L1960.7 126.917 L1960.7 122.658 L1968.97 120.991 L1973.64 120.991 L1973.64 151.616 L1981.28 151.616 L1981.28 155.551 L1961.38 155.551 L1961.38 151.616 Z" fill="#000000" fill-rule="nonzero" fill-opacity="1" /></svg>
